<svg xmlns="http://www.w3.org/2000/svg" xmlns:xlink="http://www.w3.org/1999/xlink" aria-hidden="true" role="img" class="iconify iconify--ph" width="1em" height="1em" preserveAspectRatio="xMidYMid meet" viewBox="0 0 256 256"><path d="M220 175.332V80.668a8 8 0 0 0-4.064-6.965l-84-47.478a8 8 0 0 0-7.872 0l-84 47.478A8 8 0 0 0 36 80.668v94.664a8 8 0 0 0 4.064 6.965l84 47.478a8 8 0 0 0 7.872 0l84-47.478a8 8 0 0 0 4.064-6.965z" opacity=".2" fill="currentColor"></path><path d="M128 238.798a16.005 16.005 0 0 1-7.873-2.058l-84-47.479A16.026 16.026 0 0 1 28 175.332V80.668a16.025 16.025 0 0 1 8.127-13.93l84-47.478a16.086 16.086 0 0 1 15.746 0l84 47.479A16.026 16.026 0 0 1 228 80.668v94.664a16.025 16.025 0 0 1-8.127 13.93l-84 47.478a16.007 16.007 0 0 1-7.873 2.058zm0-205.609L44 80.668v94.664l84 47.479l84-47.479V80.668z" fill="currentColor"></path></svg>